<svg width="300" height="300" viewBox="0 0 300 300" fill="none" xmlns="http://www.w3.org/2000/svg">
  <rect width="300" height="300" fill="#F5F5F5"/>
  <rect x="70" y="70" width="160" height="120" rx="8" fill="#4F46E5" fill-opacity="0.1" stroke="#4F46E5" stroke-width="4"/>
  <path d="M70 150L110 120L130 135L190 90L230 130V182C230 186.418 226.418 190 222 190H78C73.5817 190 70 186.418 70 182V150Z" fill="#4F46E5" fill-opacity="0.2"/>
  <circle cx="110" cy="100" r="10" fill="#4F46E5"/>
  <rect x="100" y="210" width="100" height="20" rx="5" fill="#4F46E5" fill-opacity="0.2"/>
  <rect x="130" y="210" width="40" height="20" rx="5" fill="#4F46E5"/>
  <path d="M150 20V50M165 35H135" stroke="#4F46E5" stroke-width="6" stroke-linecap="round"/>
  <path d="M245 150H275M260 135V165" stroke="#4F46E5" stroke-width="6" stroke-linecap="round"/>
  <path d="M55 150H25" stroke="#4F46E5" stroke-width="6" stroke-linecap="round"/>
</svg> 